<svg fill="none" height="96" width="64" xmlns="http://www.w3.org/2000/svg"><path clip-rule="evenodd" d="m3 12a9 9 0 0 1 9-9h31l20 20v39a9 9 0 0 1 -9 9h-42a9 9 0 0 1 -9-9z" fill="#ed204b" fill-rule="evenodd"/><path clip-rule="evenodd" d="m43 3 20 20h-11a9 9 0 0 1 -9-9z" fill="#c7183c" fill-rule="evenodd"/><path d="m26 52 8.036 6.102 8.034-6.102" stroke="#fff" stroke-linecap="square"/><path d="m27.781 36.61c0 1.277-.377 2.264-1.133 2.962-.75.692-1.817 1.039-3.203 1.039h-.867v3.789h-3.086v-11.422h3.953c1.443 0 2.526.315 3.25.945s1.086 1.526 1.086 2.688zm-5.203 1.485h.563c.463 0 .83-.13 1.101-.39.276-.26.414-.62.414-1.078 0-.771-.427-1.157-1.281-1.157h-.797zm16.719.352c0 1.906-.526 3.375-1.578 4.406-1.047 1.031-2.521 1.547-4.422 1.547h-3.695v-11.422h3.953c1.833 0 3.247.469 4.242 1.406 1 .938 1.5 2.292 1.5 4.063zm-3.203.11c0-1.048-.209-1.824-.625-2.329-.412-.505-1.04-.758-1.883-.758h-.898v6.399h.687c.938 0 1.625-.271 2.063-.813.437-.547.656-1.38.656-2.5zm8.296 5.843h-3.04v-11.422h6.75v2.477h-3.71v2.18h3.422v2.476h-3.422z" fill="#fff"/></svg>