<svg width="192" height="48" fill="none" xmlns="http://www.w3.org/2000/svg"><path fill-rule="evenodd" clip-rule="evenodd" d="M91.277 26.105c0 2.51-2.01 4.564-4.47 4.564h-9.62c-2.46 0-4.47-2.054-4.47-4.564l-.001-4.21c0-2.68 1.732-4.564 4.47-4.564h9.621c2.74 0 4.471 1.884 4.471 4.563v4.211zM88.06 12H75.94C71.023 12 67 16.107 67 21.127v5.746C67 31.893 71.023 36 75.94 36h12.12c4.917 0 8.94-4.107 8.94-9.127v-5.746C97 16.107 92.977 12 88.06 12zM24.277 26.105c0 2.51-2.011 4.564-4.47 4.564h-9.62c-2.46 0-4.47-2.054-4.47-4.564l-.001-4.21c0-2.68 1.732-4.564 4.47-4.564h9.621c2.739 0 4.47 1.884 4.47 4.563v4.211zM21.059 12H8.94C4.023 12 0 16.107 0 21.127v5.746C0 31.893 4.023 36 8.94 36h12.12c4.917 0 8.94-4.107 8.94-9.127v-5.746C30 16.107 25.977 12 21.06 12zm86.992 24V22.035c0-2.718 1.833-4.628 4.733-4.628h9.425c2.9 0 4.733 1.91 4.733 4.628L126.941 36H133V21.257c0-5.091-4.259-9.257-9.464-9.257h-12.072c-5.205 0-9.464 4.166-9.464 9.257V36h6.051zm32.024-5h-1.151A1.933 1.933 0 0 0 137 32.93v1.14c0 1.06.866 1.93 1.924 1.93h1.151c1.059 0 1.925-.87 1.925-1.93v-1.14c0-1.061-.866-1.93-1.925-1.93zm45.982-19l.002 13.965c0 2.717-1.801 4.628-4.648 4.628h-7.815c-2.847 0-4.648-1.91-4.648-4.628L168.95 12H163v14.743c0 5.091 4.182 9.257 9.294 9.257h10.412c5.112 0 9.294-4.166 9.294-9.257V12h-5.943zm-29.214 5.485h2.18L160 12h-4.483c-5.235 0-9.517 4.226-9.517 9.39V36h6.085l-.001-13.82c0-2.757 1.844-4.695 4.759-4.695zM61.928 30.563H44.933l16.774-12.685A3.26 3.26 0 0 0 63 15.258c0-1.732-1.33-3.15-3.273-3.258h-24.6l.01.056-.01-.002.946 5.383h17.002L36.294 30.111A3.26 3.26 0 0 0 35 32.731C35 34.533 36.256 36 38.467 36H62.88l-.01-.058.002.001-.945-5.38z" fill="#fff"/></svg>