<svg xmlns="http://www.w3.org/2000/svg" viewBox="0 0 12 12" width="12" height="12"><style>tspan { white-space:pre }.shp0 { fill: #86ae63 } .shp1 { fill: #86ae63;stroke: #ffffff;stroke-linecap:round;stroke-width: 0.686 } </style><g ><path class="shp0" d="M12,9.51c0,-0.16 -0.12,-0.42 -0.2,-0.49c-0.4,-0.37 -1.15,-0.53 -1.95,-0.98c-0.8,-0.45 -0.87,-0.31 -1.01,-0.24c-0.14,0.07 -0.75,1.04 -1.04,1.35c-0.19,0.2 -0.45,0.17 -0.55,0.14c-2.3,-0.76 -4.13,-3.71 -4.13,-3.71c-0.21,-0.21 0,-0.45 0,-0.45c0.41,-0.42 0.59,-0.62 0.82,-0.93c0.42,-0.58 -0.8,-2.7 -0.96,-3.16c-0.16,-0.45 -1.06,-0.29 -1.06,-0.29c-1.74,0.27 -2.17,2.63 -1.78,3.54c2.34,5.61 7.88,9.32 10.98,7.04c0,0 0.89,-0.49 0.89,-1.81z" /><path class="shp1" d="M11.12 0.68L6.94 4.93M6.84 0.99L6.84 5.04L10.81 5.04" /></g></svg>